<?xml version="1.0" standalone="no"?>
<!DOCTYPE svg PUBLIC "-//W3C//DTD SVG 20010904//EN"
 "http://www.w3.org/TR/2001/REC-SVG-20010904/DTD/svg10.dtd">
<svg version="1.0" xmlns="http://www.w3.org/2000/svg"
 width="440.000000pt" height="440.000000pt" viewBox="0 0 440.000000 440.000000"
 preserveAspectRatio="xMidYMid meet">
<metadata>
Created by potrace 1.11, written by Peter Selinger 2001-2013
</metadata>
<g transform="translate(0.000000,440.000000) scale(0.100000,-0.100000)"
fill="#000000" stroke="none">
<path d="M3397 4335 c-1 -2 -27 -5 -59 -9 -132 -13 -285 -87 -388 -188 -101
-97 -161 -197 -196 -326 -14 -50 -21 -61 -33 -56 -26 11 -192 51 -246 59 -27
5 -57 10 -65 11 -150 30 -480 20 -645 -18 -27 -7 -54 -12 -60 -13 -45 -5 -251
-74 -333 -111 -41 -19 -75 -34 -77 -34 -10 0 -204 -115 -248 -147 -288 -208
-490 -447 -636 -753 -94 -197 -150 -398 -176 -635 -6 -50 -7 -307 -1 -355 45
-409 188 -750 439 -1048 96 -115 177 -193 317 -305 70 -56 266 -171 377 -220
138 -62 360 -126 488 -142 28 -3 73 -8 100 -12 69 -8 308 -8 375 0 30 4 75 10
100 13 261 33 593 169 825 336 116 84 263 220 340 312 22 27 45 54 50 60 21
22 132 186 154 226 108 198 193 425 217 580 3 19 10 53 14 76 5 22 12 83 16
134 14 200 6 357 -27 526 -5 28 -12 63 -15 78 -25 142 -182 507 -253 590 -15
17 -15 19 3 30 178 105 290 235 347 400 34 98 40 137 40 243 0 262 -153 503
-398 627 -58 29 -146 55 -208 62 -53 6 -134 11 -138 9z m49 -222 c35 -35 47
-85 50 -213 3 -150 2 -140 13 -140 12 0 298 -161 379 -212 34 -22 62 -45 62
-50 0 -10 -64 -6 -130 7 -34 6 -270 56 -296 62 -20 5 -20 1 -19 -123 l2 -127
56 -53 c31 -30 59 -65 61 -79 3 -14 3 -25 1 -25 -2 0 -44 17 -93 38 l-88 39
-85 -43 c-46 -24 -87 -43 -91 -43 -8 -1 1 51 10 59 4 3 27 27 51 52 l44 47 -3
78 c-6 164 -7 178 -18 176 -6 -2 -82 -22 -169 -47 -167 -46 -263 -64 -263 -49
0 13 115 93 352 246 l87 56 -5 38 c-10 82 -7 238 6 263 31 60 56 73 86 43z
m-1172 -567 c43 -3 88 -8 100 -11 11 -3 34 -7 50 -9 41 -7 43 -13 11 -38 -60
-47 -120 -118 -141 -168 -9 -19 -19 -42 -23 -50 -4 -8 -7 -38 -6 -66 3 -93 76
-187 200 -254 154 -85 182 -171 162 -503 -2 -27 3 -61 11 -77 17 -34 101 -80
147 -80 41 0 119 41 175 91 81 73 123 85 227 63 109 -23 137 -21 180 12 49 37
101 91 160 166 l48 60 37 -78 c45 -95 109 -286 122 -364 3 -19 8 -45 10 -57
19 -93 26 -377 12 -468 -3 -22 -8 -53 -11 -70 -13 -86 -29 -149 -64 -255 -139
-415 -426 -748 -818 -948 -150 -76 -349 -142 -477 -157 -23 -3 -59 -8 -81 -11
l-41 -6 -18 79 c-32 136 -103 376 -130 436 -14 32 -41 77 -59 100 -75 92 -95
184 -71 317 29 162 -33 269 -144 251 -43 -8 -87 -51 -180 -181 -229 -317 -266
-362 -383 -461 -68 -58 -106 -131 -105 -200 1 -27 1 -49 -1 -49 -1 0 -35 26
-76 59 -196 156 -374 380 -472 596 -33 71 -84 206 -90 236 -2 9 -8 33 -14 53
-7 29 -7 38 4 42 15 6 69 106 78 144 8 33 17 126 22 230 7 142 7 143 104 200
128 74 142 102 146 290 4 194 -25 281 -112 336 -38 24 -41 29 -31 48 56 105
237 304 366 403 72 56 73 56 87 35 18 -24 72 -44 106 -38 13 3 31 5 40 5 9 1
42 20 72 44 31 23 78 54 105 69 39 21 61 43 98 101 50 77 61 84 155 101 8 1
28 5 44 9 65 14 94 18 190 24 55 3 101 6 102 7 3 2 98 -2 177 -8z"/>
<path d="M1610 2393 c-83 -25 -134 -56 -152 -92 -9 -19 -14 -41 -10 -52 4 -10
47 -59 95 -109 122 -125 157 -213 97 -245 -14 -7 -51 -20 -82 -29 -86 -25
-127 -83 -97 -138 16 -30 86 -58 147 -58 55 0 122 21 122 39 0 6 17 19 38 30
36 18 61 25 132 36 67 11 130 37 150 62 39 50 18 135 -56 222 -29 33 -41 61
-60 136 -25 101 -58 164 -101 192 -34 23 -158 26 -223 6z"/>
<path d="M1458 1621 c-7 -2 -26 -16 -41 -32 -27 -27 -28 -29 -12 -58 8 -17 23
-31 33 -31 25 0 142 57 142 70 0 11 -36 50 -47 51 -36 4 -63 4 -75 0z"/>
<path d="M3404 1548 c-23 -12 -83 -76 -126 -135 -17 -23 -57 -61 -90 -83 -63
-45 -101 -94 -113 -150 -13 -57 -7 -194 10 -238 28 -69 54 -64 176 35 79 64
113 82 143 77 49 -7 131 62 162 135 22 51 19 95 -10 186 -14 44 -26 84 -26 89
0 5 -11 24 -25 41 -29 39 -73 57 -101 43z"/>
</g>
</svg>
